<?xml version="1.0" encoding="UTF-8" standalone="no"?>
<svg
   xmlns:dc="http://purl.org/dc/elements/1.1/"
   xmlns:cc="http://creativecommons.org/ns#"
   xmlns:rdf="http://www.w3.org/1999/02/22-rdf-syntax-ns#"
   xmlns:svg="http://www.w3.org/2000/svg"
   xmlns="http://www.w3.org/2000/svg"
   viewBox="0 0 916.1333 666.66669"
   height="666.66669"
   width="916.1333"
   xml:space="preserve"
   id="svg2"
   version="1.1"><metadata
     id="metadata8"><rdf:RDF><cc:Work
         rdf:about=""><dc:format>image/svg+xml</dc:format><dc:type
           rdf:resource="http://purl.org/dc/dcmitype/StillImage" /></cc:Work></rdf:RDF></metadata><defs
     id="defs6" /><g
     transform="matrix(1.3333333,0,0,-1.3333333,0,666.66667)"
     id="g10"><g
       transform="scale(0.1)"
       id="g12"><path
         id="path14"
         style="fill:#60d5f0;fill-opacity:1;fill-rule:nonzero;stroke:none"
         d="M 6871,0 H 0 V 5000 H 6871 V 0" /><path
         id="path16"
         style="fill:#60d5f0;fill-opacity:1;fill-rule:nonzero;stroke:none"
         d="M 6871,0 H 0 V 5000 H 6871 V 0" /><path
         id="path18"
         style="fill:#ffffff;fill-opacity:1;fill-rule:nonzero;stroke:none"
         d="m 3868.34,1227.91 c -35.58,4.41 -45.76,41.97 -48.24,71.23 v 34.98 c 0,19.65 -15.94,35.57 -35.61,35.57 -19.65,0 -35.56,-15.92 -35.56,-35.57 v -25.31 c -5.16,-65.24 -52.86,-81.21 -52.86,-81.21 h 1.45 c -18.17,-1.62 -32.44,-16.69 -32.44,-35.28 0,-19.63 15.92,-35.56 35.56,-35.56 h 1.9 3.03 c 10.01,-0.47 42.24,-6.86 43.36,-69.61 v -0.68 c 0.06,-4.83 -0.02,-9.97 -0.37,-15.49 l 0.37,0.04 v -20.47 c 0,-19.65 15.91,-35.58 35.56,-35.58 19.67,0 35.61,15.93 35.61,35.58 v 40.49 c 1.21,24.47 8.44,65.72 43.26,65.72 h 4.98 c 19.65,0 35.59,15.93 35.59,35.56 0,19.65 -15.94,35.59 -35.59,35.59" /><path
         id="path20"
         style="fill:#ffffff;fill-opacity:1;fill-rule:nonzero;stroke:none"
         d="m 3324.97,1792.62 c -32.59,4.04 -41.92,38.46 -44.19,65.26 v 32.05 c 0,18.01 -14.61,32.6 -32.63,32.6 -18,0 -32.59,-14.59 -32.59,-32.6 v -23.19 c -4.72,-59.76 -48.42,-74.4 -48.42,-74.4 h 1.33 c -16.65,-1.48 -29.73,-15.29 -29.73,-32.31 0,-18.01 14.59,-32.59 32.6,-32.59 h 1.73 2.77 c 9.18,-0.43 38.71,-6.29 39.72,-63.79 v -0.61 c 0.07,-4.44 -0.01,-9.15 -0.33,-14.21 l 0.33,0.04 v -18.75 c 0,-18 14.59,-32.6 32.59,-32.6 18.02,0 32.63,14.6 32.63,32.6 v 37.1 c 1.1,22.42 7.74,60.22 39.64,60.22 h 4.55 c 18,0 32.62,14.58 32.62,32.59 0,18.01 -14.62,32.59 -32.62,32.59" /><path
         id="path22"
         style="fill:#ffffff;fill-opacity:1;fill-rule:nonzero;stroke:none"
         d="m 6385.52,1402.29 c -32.59,4.04 -41.93,38.46 -44.19,65.26 v 32.05 c 0,18.01 -14.61,32.6 -32.63,32.6 -18.01,0 -32.6,-14.59 -32.6,-32.6 v -23.19 c -4.71,-59.76 -48.41,-74.4 -48.41,-74.4 h 1.32 c -16.65,-1.48 -29.72,-15.29 -29.72,-32.31 0,-18.01 14.59,-32.59 32.59,-32.59 h 1.73 2.78 c 9.18,-0.43 38.71,-6.29 39.71,-63.79 v -0.61 c 0.07,-4.44 -0.01,-9.16 -0.32,-14.21 l 0.32,0.04 v -18.75 c 0,-18 14.59,-32.6 32.6,-32.6 18.02,0 32.63,14.6 32.63,32.6 v 37.09 c 1.1,22.43 7.73,60.23 39.64,60.23 h 4.55 c 18,0 32.61,14.58 32.61,32.59 0,18.01 -14.61,32.59 -32.61,32.59" /><path
         id="path24"
         style="fill:#ffffff;fill-opacity:1;fill-rule:nonzero;stroke:none"
         d="m 3784.52,3997.73 c -35.56,4.42 -45.76,41.98 -48.23,71.23 v 34.99 c 0,19.64 -15.94,35.57 -35.6,35.57 -19.65,0 -35.57,-15.93 -35.57,-35.57 v -25.32 c -5.16,-65.23 -52.85,-81.21 -52.85,-81.21 h 1.43 c -18.16,-1.61 -32.43,-16.69 -32.43,-35.27 0,-19.64 15.93,-35.57 35.58,-35.57 h 1.87 3.04 c 10.01,-0.46 42.24,-6.85 43.36,-69.61 v -0.67 c 0.07,-4.83 -0.03,-9.98 -0.36,-15.5 l 0.36,0.03 v -20.46 c 0,-19.65 15.92,-35.58 35.57,-35.58 19.66,0 35.6,15.93 35.6,35.58 v 40.48 c 1.21,24.48 8.45,65.73 43.26,65.73 h 4.97 c 19.66,0 35.6,15.93 35.6,35.57 0,19.65 -15.94,35.58 -35.6,35.58" /><path
         id="path26"
         style="fill:#ffffff;fill-opacity:1;fill-rule:nonzero;stroke:none"
         d="m 6103.09,4099.18 c -35.57,4.41 -45.77,41.97 -48.24,71.22 v 34.99 c 0,19.65 -15.93,35.57 -35.59,35.57 -19.66,0 -35.58,-15.92 -35.58,-35.57 v -25.31 c -5.15,-65.23 -52.85,-81.21 -52.85,-81.21 h 1.44 c -18.17,-1.62 -32.44,-16.69 -32.44,-35.27 0,-19.64 15.93,-35.57 35.58,-35.57 h 1.88 3.03 c 10.01,-0.47 42.25,-6.86 43.36,-69.61 v -0.68 c 0.07,-4.82 -0.03,-9.97 -0.36,-15.49 l 0.36,0.03 v -20.47 c 0,-19.64 15.92,-35.57 35.58,-35.57 19.66,0 35.59,15.93 35.59,35.57 v 40.49 c 1.21,24.47 8.45,65.73 43.27,65.73 h 4.97 c 19.65,0 35.59,15.93 35.59,35.57 0,19.65 -15.94,35.58 -35.59,35.58" /><path
         id="path28"
         style="fill:#ffffff;fill-opacity:1;fill-rule:nonzero;stroke:none"
         d="m 3427.6,3477.21 c -20.35,2.53 -26.17,24.01 -27.6,40.73 v 20.01 c 0,11.24 -9.1,20.34 -20.35,20.34 -11.23,0 -20.34,-9.1 -20.34,-20.34 v -14.47 c -2.95,-37.31 -30.23,-46.45 -30.23,-46.45 h 0.83 c -10.39,-0.92 -18.55,-9.54 -18.55,-20.17 0,-11.23 9.1,-20.34 20.34,-20.34 h 1.07 1.74 c 5.72,-0.27 24.15,-3.92 24.8,-39.81 v -0.38 c 0.04,-2.77 -0.02,-5.71 -0.21,-8.87 l 0.21,0.02 v -11.7 c 0,-11.24 9.11,-20.35 20.34,-20.35 11.25,0 20.35,9.11 20.35,20.35 v 23.15 c 0.7,14 4.83,37.59 24.75,37.59 h 2.85 c 11.23,0 20.35,9.11 20.35,20.34 0,11.24 -9.12,20.35 -20.35,20.35" /><path
         id="path30"
         style="fill:#ffffff;fill-opacity:1;fill-rule:nonzero;stroke:none"
         d="m 1021.11,4159.88 c -20.35,2.52 -26.165,24 -27.587,40.73 v 20.01 c 0,11.23 -9.121,20.34 -20.363,20.34 -11.234,0 -20.34,-9.11 -20.34,-20.34 v -14.48 c -2.949,-37.31 -30.222,-46.45 -30.222,-46.45 h 0.824 c -10.387,-0.92 -18.555,-9.54 -18.555,-20.17 0,-11.23 9.11,-20.34 20.344,-20.34 h 1.082 1.734 c 5.723,-0.26 24.161,-3.92 24.793,-39.81 v -0.38 c 0.039,-2.76 -0.015,-5.71 -0.203,-8.86 l 0.203,0.01 v -11.7 c 0,-11.24 9.106,-20.34 20.34,-20.34 11.242,0 20.363,9.1 20.363,20.34 v 23.15 c 0.696,14 4.829,37.59 24.747,37.59 h 2.84 c 11.24,0 20.35,9.11 20.35,20.34 0,11.24 -9.11,20.36 -20.35,20.36" /><path
         id="path32"
         style="fill:#ffffff;fill-opacity:1;fill-rule:nonzero;stroke:none"
         d="m 516.57,3318.24 c -20.347,2.53 -26.164,24.01 -27.586,40.73 v 20.01 c 0,11.24 -9.121,20.35 -20.367,20.35 -11.234,0 -20.336,-9.11 -20.336,-20.35 v -14.47 c -2.949,-37.31 -30.222,-46.45 -30.222,-46.45 h 0.824 c -10.387,-0.93 -18.555,-9.54 -18.555,-20.17 0,-11.23 9.106,-20.34 20.34,-20.34 h 1.086 1.73 c 5.727,-0.26 24.161,-3.92 24.797,-39.81 v -0.38 c 0.039,-2.77 -0.019,-5.71 -0.207,-8.86 l 0.207,0.01 v -11.7 c 0,-11.24 9.102,-20.35 20.336,-20.35 11.246,0 20.367,9.11 20.367,20.35 v 23.15 c 0.696,14 4.825,37.59 24.743,37.59 h 2.843 c 11.243,0 20.356,9.11 20.356,20.34 0,11.24 -9.113,20.35 -20.356,20.35" /><path
         id="path34"
         style="fill:#ffffff;fill-opacity:1;fill-rule:nonzero;stroke:none"
         d="m 734.063,1516.44 c -20.352,2.52 -26.172,24 -27.586,40.74 v 19.99 c 0,11.24 -9.122,20.35 -20.364,20.35 -11.234,0 -20.343,-9.11 -20.343,-20.35 v -14.46 c -2.95,-37.32 -30.223,-46.46 -30.223,-46.46 h 0.824 c -10.387,-0.93 -18.551,-9.54 -18.551,-20.17 0,-11.23 9.11,-20.34 20.344,-20.34 h 1.082 1.731 c 5.722,-0.26 24.156,-3.92 24.793,-39.8 v -0.39 c 0.046,-2.76 -0.016,-5.72 -0.207,-8.87 l 0.207,0.02 V 1415 c 0,-11.24 9.109,-20.34 20.343,-20.34 11.242,0 20.364,9.1 20.364,20.34 v 23.15 c 0.691,14.01 4.824,37.59 24.738,37.59 h 2.848 c 11.234,0 20.351,9.11 20.351,20.34 0,11.24 -9.117,20.36 -20.351,20.36" /><path
         id="path36"
         style="fill:#ffffff;fill-opacity:1;fill-rule:nonzero;stroke:none"
         d="m 952.832,1040.33 c -20.352,2.52 -26.172,24.01 -27.594,40.73 v 20 c 0,11.24 -9.109,20.36 -20.355,20.36 -11.235,0 -20.348,-9.12 -20.348,-20.36 v -14.47 c -2.941,-37.3 -30.222,-46.44 -30.222,-46.44 h 0.824 c -10.387,-0.93 -18.551,-9.54 -18.551,-20.18 0,-11.23 9.113,-20.329 20.348,-20.329 h 1.078 1.734 c 5.723,-0.27 24.156,-3.93 24.789,-39.821 v -0.379 c 0.043,-2.761 -0.015,-5.711 -0.203,-8.859 l 0.203,0.02 v -11.704 c 0,-11.238 9.113,-20.347 20.348,-20.347 11.246,0 20.355,9.109 20.355,20.347 v 23.141 c 0.696,14 4.836,37.602 24.742,37.602 h 2.852 c 11.234,0 20.348,9.099 20.348,20.329 0,11.24 -9.114,20.36 -20.348,20.36" /><path
         id="path38"
         style="fill:#ffffff;fill-opacity:1;fill-rule:nonzero;stroke:none"
         d="m 5276.82,3932.56 c -20.36,2.52 -26.18,24.01 -27.6,40.74 v 20 c 0,11.24 -9.1,20.35 -20.35,20.35 -11.23,0 -20.35,-9.11 -20.35,-20.35 v -14.48 c -2.94,-37.3 -30.22,-46.44 -30.22,-46.44 h 0.82 c -10.39,-0.93 -18.55,-9.54 -18.55,-20.18 0,-11.23 9.12,-20.33 20.35,-20.33 h 1.07 1.74 c 5.72,-0.26 24.16,-3.93 24.79,-39.81 v -0.39 c 0.04,-2.76 -0.01,-5.71 -0.2,-8.86 l 0.2,0.02 v -11.7 c 0,-11.24 9.12,-20.34 20.35,-20.34 11.25,0 20.35,9.1 20.35,20.34 v 23.14 c 0.7,14.01 4.84,37.6 24.74,37.6 h 2.86 c 11.23,0 20.35,9.1 20.35,20.33 0,11.24 -9.12,20.36 -20.35,20.36" /><path
         id="path40"
         style="fill:#ffffff;fill-opacity:1;fill-rule:nonzero;stroke:none"
         d="m 924.648,3292.18 c 88.812,64.52 380.472,155.84 642.462,24.21 130.32,-65.47 325.66,-188.32 630.63,25.58 157.51,110.51 487.06,226.95 763.88,-94.08 129.01,-149.55 274.94,-562.99 88.47,-913.3 -101.21,-190.09 -327.26,-480.25 -367.43,-821.88 -25.32,-215.46 -131.1,-535.819 -318.82,-617.249 -66.6,-28.871 -225.95,-68.973 -249.11,149.449 0,0 -0.06,160.53 -171.6,182.67 0,0 -160.55,-6.76 -160.53,-182.67 0.03,-154.961 -160.47,-215.851 -319.59,-105.25 -138.56,96.36 -227.1,265.85 -267.12,514.82 -17.66,110.04 -98.01,268.86 -199.296,398.57 -157.258,201.46 -719.547,968.65 -71.946,1439.13" /><path
         id="path42"
         style="fill:#e6e7e9;fill-opacity:1;fill-rule:nonzero;stroke:none"
         d="m 2197.74,3341.97 c -304.97,-213.9 -500.31,-91.05 -630.63,-25.58 -54.3,27.3 -109.83,44.57 -164.62,54.91 -272.62,20.76 -231.27,-224.55 -20.89,-263.47 368,-68.08 573.22,67.3 816.14,234.14" /><path
         id="path44"
         style="fill:#e6e7e9;fill-opacity:1;fill-rule:nonzero;stroke:none"
         d="m 2372.56,3428.66 c 256.28,-27.72 -76.54,-543.94 -493.15,-561.72 -390.46,-16.61 -54.77,-130.75 284.06,-113.89 125.49,6.23 365.14,107.4 476.15,-161.11 38.43,-93.11 46.59,-196.05 -85.93,-393.77 -225.54,-336.46 -132.5,-841.24 -494.05,-823.33 -123.03,6.09 -383.04,32.27 -454.64,-189.73 -25.63,-79.42 -121.63,-343.321 -333.7,-0.43 47.1,-107.42 110.8,-188.782 191.71,-245.02 159.12,-110.601 319.62,-49.711 319.59,105.25 -0.02,175.91 160.53,182.67 160.53,182.67 171.54,-22.14 171.6,-182.67 171.6,-182.67 23.16,-218.422 182.51,-178.32 249.11,-149.449 187.72,81.43 293.5,401.789 318.82,617.249 40.17,341.63 266.22,631.79 367.43,821.88 186.47,350.31 40.54,763.75 -88.47,913.3 -196.66,228.02 -419.79,235.27 -589.06,180.77" /><path
         id="path46"
         style="fill:none;stroke:#141414;stroke-width:60;stroke-linecap:round;stroke-linejoin:round;stroke-miterlimit:10;stroke-dasharray:none;stroke-opacity:1"
         d="m 1291.81,2520.17 c 0,64.83 52.53,117.36 117.36,117.36 64.83,0 117.36,-52.53 117.36,-117.36" /><path
         id="path48"
         style="fill:none;stroke:#141414;stroke-width:60;stroke-linecap:round;stroke-linejoin:round;stroke-miterlimit:10;stroke-dasharray:none;stroke-opacity:1"
         d="m 2214.97,2520.17 c 0,64.83 52.54,117.36 117.32,117.36 64.82,0 117.43,-52.53 117.43,-117.36" /><path
         id="path50"
         style="fill:#4c0b09;fill-opacity:1;fill-rule:nonzero;stroke:none"
         d="m 1592.69,2269.24 h 556.11 c 0,0 -67.88,-216.51 -274.01,-235.59 -189.29,-17.57 -264.17,193.42 -282.1,235.59" /><path
         id="path52"
         style="fill:#ffffff;fill-opacity:1;fill-rule:nonzero;stroke:none"
         d="m 1684.69,2269.24 v -54.54 c 0,0 183.48,-66.99 361.16,0 v 54.54 h -361.16" /><path
         id="path54"
         style="fill:#ec1b26;fill-opacity:1;fill-rule:nonzero;stroke:none"
         d="m 1874.79,2033.65 c 64.69,6.01 115.75,31.45 155.33,63.51 -146.46,83.23 -229.99,-21.12 -250.41,-51.79 27.93,-10.23 59.46,-15.02 95.08,-11.72" /><path
         id="path56"
         style="fill:#ffb0b1;fill-opacity:1;fill-rule:nonzero;stroke:none"
         d="m 1276.87,2302.7 c 0,-50.36 -40.8,-91.12 -91.12,-91.12 -50.33,0 -91.11,40.76 -91.11,91.12 0,50.31 40.78,91.09 91.11,91.09 50.32,0 91.12,-40.78 91.12,-91.09" /><path
         id="path58"
         style="fill:#ffb0b1;fill-opacity:1;fill-rule:nonzero;stroke:none"
         d="m 2646.84,2302.7 c 0,-50.36 -40.8,-91.12 -91.13,-91.12 -50.32,0 -91.13,40.76 -91.13,91.12 0,50.31 40.81,91.09 91.13,91.09 50.33,0 91.13,-40.78 91.13,-91.09" /><path
         id="path60"
         style="fill:#e8feff;fill-opacity:1;fill-rule:nonzero;stroke:none"
         d="m 1912.66,4132.11 c -90.53,0 -175.9,-18.5 -251.39,-51.11 l 0.03,0.15 c -71.43,-21.36 -132.5,-73.34 -174.59,-118.16 -21.01,-21.33 -39.74,-44.29 -56.09,-68.59 -3.33,-4.75 -5.11,-7.5 -5.11,-7.5 -217.61,-293.98 -489.756,-76.16 -489.756,-76.16 202.566,-530.34 817.546,-619.7 976.906,-619.7 306.38,0 554.77,210.66 554.77,470.53 0,259.87 -248.39,470.54 -554.77,470.54" /><path
         id="path62"
         style="fill:#46e5f2;fill-opacity:1;fill-rule:nonzero;stroke:none"
         d="m 2467.19,3653.3 c 0.06,2.76 0.24,5.5 0.24,8.27 0,114.3 -48.08,219.05 -127.99,300.59 -212.33,-216.95 -768.76,-659.53 -1403.366,-151.68 -0.191,0.15 -0.32,0.26 -0.32,0.26 0,0 614.356,-893.59 1531.436,-157.44" /><path
         id="path64"
         style="fill:#46e5f2;fill-opacity:1;fill-rule:nonzero;stroke:none"
         d="m 2198.13,4065.06 c -83.41,42.54 -181.07,67.05 -285.47,67.05 -13.85,0 -27.53,-0.57 -41.12,-1.43 -11.46,-132.86 -389.24,-425.4 -678.26,-395.35 -22.45,-2.8 -44.27,-2.81 -65.08,-0.83 0.31,-0.07 616.04,-216.16 1069.93,330.56" /><path
         id="path66"
         style="fill:#ffffff;fill-opacity:1;fill-rule:nonzero;stroke:none"
         d="m 4001.15,3323.82 c 90.55,65.77 387.8,158.83 654.83,24.68 132.8,-66.74 331.9,-191.96 642.76,26.07 160.5,112.62 496.38,231.32 778.55,-95.9 131.46,-152.43 280.26,-573.82 90.17,-930.85 -103.19,-193.78 -333.51,-489.54 -374.47,-837.73 -25.9,-219.6 -133.62,-546.102 -324.96,-629.11 -67.93,-29.421 -230.27,-70.289 -253.91,152.34 0,0 -0.11,163.61 -174.95,186.16 0,0 -163.64,-6.91 -163.54,-186.16 0,-157.968 -163.57,-220.011 -325.75,-107.261 -141.26,98.161 -231.45,270.941 -272.28,524.701 -17.99,112.17 -99.89,274.02 -203.12,406.22 -160.32,205.33 -733.41,987.3 -73.33,1466.84" /><path
         id="path68"
         style="fill:#f3e8ca;fill-opacity:1;fill-rule:nonzero;stroke:none"
         d="m 4001.15,3323.82 c 90.55,65.77 387.8,158.83 654.83,24.68 132.8,-66.74 331.9,-191.96 642.76,26.07 160.5,112.62 496.38,231.32 778.55,-95.9 131.46,-152.43 280.26,-573.82 90.17,-930.85 -103.19,-193.78 -333.51,-489.54 -374.47,-837.73 -25.9,-219.6 -133.62,-546.102 -324.96,-629.11 -67.93,-29.421 -230.27,-70.289 -253.91,152.34 0,0 -0.11,163.61 -174.95,186.16 0,0 -163.64,-6.91 -163.54,-186.16 0,-157.968 -163.57,-220.011 -325.75,-107.261 -141.26,98.161 -231.45,270.941 -272.28,524.701 -17.99,112.17 -99.89,274.02 -203.12,406.22 -160.32,205.33 -733.41,987.3 -73.33,1466.84" /><path
         id="path70"
         style="fill:#ead6a4;fill-opacity:1;fill-rule:nonzero;stroke:none"
         d="m 5298.74,3374.57 c -310.86,-218.03 -509.96,-92.81 -642.76,-26.07 -55.32,27.81 -111.94,45.42 -167.77,55.96 -277.87,21.16 -235.77,-228.87 -21.33,-268.54 375.07,-69.39 584.26,68.59 831.86,238.65" /><path
         id="path72"
         style="fill:#ead6a4;fill-opacity:1;fill-rule:nonzero;stroke:none"
         d="m 5476.91,3462.92 c 261.18,-28.25 -78.07,-554.39 -502.69,-572.51 -397.94,-16.96 -55.83,-133.28 289.61,-116.1 127.87,6.36 372.14,109.48 485.22,-164.19 39.18,-94.91 47.53,-199.86 -87.57,-401.33 -229.88,-342.97 -134.99,-857.46 -503.49,-839.21 -125.41,6.19 -390.39,32.89 -463.39,-193.38 -26.14,-80.97 -123.96,-349.938 -340.12,-0.43 48.05,-109.48 112.92,-192.418 195.4,-249.711 162.18,-112.75 325.75,-50.707 325.75,107.261 -0.1,179.25 163.54,186.16 163.54,186.16 174.84,-22.55 174.95,-186.16 174.95,-186.16 23.64,-222.629 185.98,-181.761 253.91,-152.34 191.34,83.008 299.06,409.51 324.96,629.11 40.96,348.19 271.28,643.95 374.47,837.73 190.09,357.03 41.29,778.42 -90.17,930.85 -200.41,232.41 -427.87,239.81 -600.38,184.25" /><path
         id="path74"
         style="fill:#4c0b09;fill-opacity:1;fill-rule:nonzero;stroke:none"
         d="m 5273.75,2031.41 h -591.14 c 0,0 72.12,230.12 291.24,250.43 201.23,18.66 280.82,-205.68 299.9,-250.43" /><path
         id="path76"
         style="fill:#ffffff;fill-opacity:1;fill-rule:nonzero;stroke:none"
         d="m 5170,2205.47 c -46.33,47.85 -110.09,84.33 -196.15,76.37 -77.11,-7.15 -135.72,-40.43 -179.69,-80.39 38.03,-18.63 209.23,-92.16 375.84,4.02" /><path
         id="path78"
         style="fill:none;stroke:#141414;stroke-width:60.39709854;stroke-linecap:round;stroke-linejoin:round;stroke-miterlimit:10;stroke-dasharray:none;stroke-opacity:1"
         d="M 4333.12,2552.24 H 4661.9" /><path
         id="path80"
         style="fill:none;stroke:#141414;stroke-width:60.39709854;stroke-linecap:round;stroke-linejoin:round;stroke-miterlimit:10;stroke-dasharray:none;stroke-opacity:1"
         d="m 5312.8,2552.24 h 328.8" /><path
         id="path82"
         style="fill:#3a2d2d;fill-opacity:1;fill-rule:nonzero;stroke:none"
         d="m 6205.83,3035.68 c -34.92,104.22 -82.79,189.93 -128.54,242.99 -263.3,305.32 -573.33,222.4 -744,118.46 l 151.93,-56.49 181.66,23.28 138.79,-177.76 171.76,112.58 v -234.59 l 228.4,-28.47" /><path
         id="path84"
         style="fill:#3a2d2d;fill-opacity:1;fill-rule:nonzero;stroke:none"
         d="m 3966.06,2326.04 -161.96,-35.22 c 1.34,-2.9 2.61,-5.66 3.89,-8.46 4.2,-9.01 8.47,-17.93 12.79,-26.79 0.77,-1.61 1.57,-3.2 2.35,-4.81 3.63,-7.37 7.27,-14.68 10.96,-21.92 0.92,-1.83 1.85,-3.63 2.77,-5.42 3.75,-7.36 7.53,-14.61 11.35,-21.83 0.71,-1.35 1.43,-2.68 2.14,-4.04 18.73,-35.2 38.03,-68.81 57.27,-100.47 0.21,-0.33 0.41,-0.66 0.63,-1.01 4.78,-7.87 9.55,-15.62 14.33,-23.24 0,-0.02 0.01,-0.03 0.02,-0.05 7.78,-12.46 15.54,-24.61 23.22,-36.39 l 89.47,147.96 -115.13,46.42 45.9,95.27" /></g></g></svg>